<svg version="1.1" xmlns="http://www.w3.org/2000/svg" xmlns:xlink="http://www.w3.org/1999/xlink" x="0px" y="0px" width="100px"
	 height="100px" viewBox="0 0 120 120" enable-background="new 0 0 120 120" xml:space="preserve">
<symbol id="conference" viewBox="0 0 120 120">
	<g>
		<path fill-rule="evenodd" clip-rule="evenodd" d="M40.583,55.011c3.543,1.559,6.548,4.053,8.674,7.171l-0.199,0.085
			c-3.316,1.475-6.208,3.713-8.391,6.463c-1.644,2.098-2.891,4.508-3.6,7.115H11.442l0.057-5.924
			c1.021-6.634,5.556-12.189,11.736-14.911c2.296,2.069,5.329,3.345,8.674,3.345S38.287,57.08,40.583,55.011L40.583,55.011z"/>
		<path fill-rule="evenodd" clip-rule="evenodd" d="M79.417,55.011c-3.543,1.559-6.548,4.053-8.674,7.171l0.198,0.085
			c3.316,1.475,6.208,3.713,8.391,6.463c1.645,2.098,2.892,4.508,3.629,7.115h25.597l-0.057-5.924
			c-1.021-6.634-5.556-12.189-11.735-14.911c-2.296,2.069-5.329,3.345-8.674,3.345C84.746,58.356,81.713,57.08,79.417,55.011
			L79.417,55.011z"/>
		<path fill-rule="evenodd" clip-rule="evenodd" d="M31.909,55.861c5.754,0,10.432-4.706,10.432-10.46
			c0-5.726-4.677-10.431-10.432-10.431s-10.432,4.706-10.432,10.431C21.477,51.156,26.154,55.861,31.909,55.861L31.909,55.861z"/>
		<path fill-rule="evenodd" clip-rule="evenodd" d="M88.092,55.861c5.754,0,10.431-4.706,10.431-10.46
			c0-5.726-4.677-10.431-10.431-10.431c-5.755,0-10.432,4.706-10.432,10.431C77.66,51.156,82.337,55.861,88.092,55.861
			L88.092,55.861z"/>
		<path fill-rule="evenodd" clip-rule="evenodd" d="M68.306,64.195c6.18,2.721,10.715,8.277,11.735,14.91l0.057,5.924H39.166
			l0.057-5.924c1.021-6.633,5.556-12.189,11.735-14.91c2.296,2.068,5.329,3.344,8.674,3.344
			C62.977,67.539,66.009,66.264,68.306,64.195L68.306,64.195z"/>
		<path fill-rule="evenodd" clip-rule="evenodd" d="M59.632,65.046c5.754,0,10.432-4.706,10.432-10.46
			c0-5.726-4.678-10.432-10.432-10.432c-5.755,0-10.432,4.706-10.432,10.432C49.2,60.34,53.877,65.046,59.632,65.046L59.632,65.046z
			"/>
	</g>
</symbol>
<symbol id="product" viewBox="0 0 120 120">
	<path fill-rule="evenodd" clip-rule="evenodd" d="M26.033,76.299c3.46-4.994,14.928-5.689,21.811-9.152
		c9.081-4.568,15.64-12.534,20.899-21.149l20.816-13.48c1.473,1.273,2.409,3.297,3.392,5.587c5.549,12.93,1.421,16.108-3.251,27.727
		c-1.786,4.441-4.389,16.076-4.453,21.65h-5.539c-0.043-0.156-0.041-0.332,0.017-0.529c0.622-2.139,1.773-20.703-0.464-22.939
		c-4.636-4.638-9.142,13.895-17.745,23.469H29.351C24.918,84.889,22.607,81.242,26.033,76.299z"/>
</symbol>
<symbol id="sector" viewBox="0 0 120 120">
	<g>
		<polygon fill-rule="evenodd" clip-rule="evenodd" points="41.399,45.866 36.603,45.866 22.322,94.565 27.302,94.565 
			39.495,52.934 55.349,89.842 60.329,89.842 76.88,32.539 92.734,69.446 97.678,69.446 78.784,25.435 73.987,25.435 57.217,82.592 
					"/>
	</g>
</symbol>
<symbol id="tecnic" viewBox="0 0 120 120">
	<g>
		<rect x="28.62" y="54.813" fill-rule="evenodd" clip-rule="evenodd" width="11.282" height="37.303"/>
		<rect x="45.798" y="36.586" fill-rule="evenodd" clip-rule="evenodd" width="11.254" height="55.53"/>
		<rect x="62.948" y="45.487" fill-rule="evenodd" clip-rule="evenodd" width="11.281" height="46.629"/>
		<rect x="80.126" y="27.884" fill-rule="evenodd" clip-rule="evenodd" width="11.254" height="64.232"/>
	</g>
</symbol>
<symbol id="management" viewBox="0 0 120 120">
	<g>
		<path fill-rule="evenodd" clip-rule="evenodd" d="M68.943,28.663c2.438,0.681,4.734,1.645,6.889,2.835l6.859-6.86l12.671,12.671
			l-6.888,6.86c1.219,2.154,2.183,4.45,2.863,6.888h9.723v17.886h-9.723c-0.681,2.438-1.645,4.734-2.863,6.889l6.888,6.859
			L82.691,95.361l-6.859-6.888c-2.154,1.219-4.45,2.183-6.889,2.863v9.723H51.056v-9.723c-2.438-0.681-4.734-1.645-6.888-2.863
			l-6.86,6.888L24.637,82.69l6.86-6.859c-1.19-2.154-2.154-4.45-2.834-6.889h-9.723V51.057h9.723
			c0.68-2.438,1.644-4.733,2.834-6.888l-6.86-6.86l12.671-12.671l6.86,6.86c2.154-1.19,4.451-2.154,6.888-2.835V18.94h17.887V28.663
			z M59.985,41.532c10.206,0,18.482,8.249,18.482,18.454c0,10.204-8.276,18.48-18.482,18.48c-10.205,0-18.454-8.276-18.454-18.48
			C41.532,49.781,49.781,41.532,59.985,41.532L59.985,41.532z"/>
	</g>
</symbol>
<symbol id="research" viewBox="0 0 120 120">
	<g>
		<path fill-rule="evenodd" clip-rule="evenodd" d="M93.343,26.671c-10.856-10.828-28.403-10.828-39.26,0
			c-10.829,10.829-10.829,28.403,0,39.231c10.856,10.829,28.403,10.829,39.26,0C104.171,55.074,104.171,37.5,93.343,26.671
			L93.343,26.671z"/>
		<path fill-rule="evenodd" clip-rule="evenodd" d="M45.551,63.663L18.537,90.678l10.8,10.772l27.014-27.015
			c-2.154-1.304-4.167-2.892-6.038-4.762C48.47,67.803,46.883,65.789,45.551,63.663L45.551,63.663z"/>
	</g>
</symbol>
<symbol id="planning" viewBox="0 0 120 120">
	<g>
		<path fill-rule="evenodd" clip-rule="evenodd" d="M48.746,85.725c3.09,0,5.641-2.523,5.641-5.641c0-3.09-2.551-5.641-5.641-5.641
			c-3.118,0-5.641,2.551-5.641,5.641C43.105,83.201,45.628,85.725,48.746,85.725L48.746,85.725z"/>
		<path fill-rule="evenodd" clip-rule="evenodd" d="M83.584,55.479c1.871,1.163,3.118,3.26,3.118,5.613
			c0,3.686-2.977,6.633-6.662,6.633c-0.623,0-1.275-0.086-1.842-0.256c-0.17,4.365-3.771,7.852-8.164,7.852
			c-3.175,0-5.925-1.842-7.285-4.479c-1.758,0.965-3.826,1.531-5.98,1.531c-3.431,0-6.52-1.361-8.76-3.6
			c-1.53,1.842-3.826,3.004-6.406,3.004c-4.592,0-8.305-3.713-8.305-8.305c0-2.977,1.559-5.584,3.883-7.059
			c-1.7-2.58-2.692-5.669-2.692-8.986c0-9.014,7.313-16.328,16.327-16.328c3.146,0,6.095,0.879,8.589,2.438
			c1.134-2.041,3.316-3.43,5.811-3.43c3.146,0,5.812,2.211,6.464,5.187c0.34-0.028,0.68-0.028,1.021-0.028
			c7.199,0,13.039,5.811,13.039,13.04C85.738,50.943,84.944,53.41,83.584,55.479L83.584,55.479z"/>
		<path fill-rule="evenodd" clip-rule="evenodd" d="M42.198,89.891c1.162,0,2.098-0.936,2.098-2.068
			c0-1.162-0.936-2.098-2.098-2.098c-1.134,0-2.069,0.936-2.069,2.098C40.129,88.955,41.064,89.891,42.198,89.891L42.198,89.891z"/>
	</g>
</symbol>
<symbol id="project" viewBox="0 0 120 120">
	<g>
		<path fill-rule="evenodd" clip-rule="evenodd" d="M36.728,22.554h27.014V52.12h25.342v39.486c0,3.203-2.637,5.84-5.812,5.84
			H36.728c-3.203,0-5.811-2.637-5.811-5.84v-63.24C30.917,25.162,33.524,22.554,36.728,22.554L36.728,22.554z M65.952,22.554h7.71
			c3.203,0,15.421,0.964,15.421,15.42v11.934H65.952V22.554z"/>
	</g>
</symbol>
<symbol id="certificate" viewBox="0 0 120 120">
	<g>
		<path fill-rule="evenodd" clip-rule="evenodd" d="M45.656,23.277h23.357v25.568h21.912v34.157c0,2.75-2.268,5.018-5.046,5.018
			H45.656c-2.749,0-5.018-2.268-5.018-5.018V28.295C40.639,25.545,42.907,23.277,45.656,23.277L45.656,23.277z M70.941,23.277h6.661
			c2.75,0,13.323,0.822,13.323,13.323v10.346H70.941V23.277z"/>
		<path fill-rule="evenodd" clip-rule="evenodd" d="M34.091,31.979h4.933v52.696c0,2.777,2.239,5.018,5.018,5.018H79.36v2.012
			c0,2.75-2.268,5.018-5.018,5.018H34.091c-2.749,0-5.017-2.268-5.017-5.018v-54.68C29.074,34.247,31.342,31.979,34.091,31.979
			L34.091,31.979z"/>
	</g>
</symbol>
<symbol id="recruitment" viewBox="0 0 120 120">
	<g>
		<path fill-rule="evenodd" clip-rule="evenodd" d="M79.347,59.106c13.776,6.095,23.867,18.454,26.135,33.279l0.114,13.153H14.404
			l0.113-13.153c2.297-14.825,12.359-27.185,26.136-33.279c5.131,4.621,11.905,7.456,19.361,7.456
			C67.441,66.563,74.244,63.728,79.347,59.106L79.347,59.106z"/>
		<path fill-rule="evenodd" clip-rule="evenodd" d="M60.015,60.978c12.813,0,23.243-10.432,23.243-23.244
			S72.827,14.461,60.015,14.461c-12.813,0-23.272,10.46-23.272,23.272S47.201,60.978,60.015,60.978L60.015,60.978z"/>
	</g>
</symbol>
<symbol id="sustainability" viewBox="0 0 120 120">
	<g>
		<path fill-rule="evenodd" clip-rule="evenodd" d="M93.562,16.45C93.25,37.964,77.263,124.534,39.59,98.824
			c-0.113-0.057-0.198-0.113-0.283-0.17l-0.028-0.029c9.751-23.102,23.782-44.049,40.79-63.523
			c-19.02,17.405-34.355,37.332-43.511,61.455C0.188,67.161,71.905,25.492,93.562,16.45L93.562,16.45z"/>
	</g>
</symbol>
<symbol id="tecnology" viewBox="0 0 120 120">
	<g>
		<path fill-rule="evenodd" clip-rule="evenodd" d="M48.406,91.352h4.762v-5.216H14.191c-1.162,0-2.125-0.964-2.125-2.126V27.685
			c0-1.162,0.963-2.126,2.125-2.126h91.616c1.162,0,2.126,0.964,2.126,2.126V84.01c0,1.162-0.964,2.126-2.126,2.126H66.831v5.216
			h4.763v3.09H48.406V91.352z M15.779,28.79h88.441v54.114H15.779V28.79z"/>
	</g>
</symbol>
<symbol id="training" viewBox="0 0 120 120">
	<g>
		<path fill-rule="evenodd" clip-rule="evenodd" d="M52.46,52.744c5.159,2.296,9.523,5.924,12.585,10.432l-0.283,0.113
			c-4.818,2.125-8.985,5.385-12.16,9.382c-2.381,3.062-4.195,6.548-5.244,10.318H10.195L10.28,74.4
			c1.474-9.639,8.05-17.688,17.008-21.657c3.345,3.033,7.738,4.847,12.586,4.847C44.721,57.591,49.144,55.777,52.46,52.744
			L52.46,52.744z"/>
		<path fill-rule="evenodd" clip-rule="evenodd" d="M39.874,53.991c8.362,0,15.165-6.803,15.165-15.166
			c0-8.334-6.803-15.137-15.165-15.137c-8.334,0-15.138,6.803-15.138,15.137C24.736,47.188,31.54,53.991,39.874,53.991
			L39.874,53.991z"/>
		<path fill-rule="evenodd" clip-rule="evenodd" d="M92.711,66.066c8.958,3.968,15.506,12.047,17.008,21.656l0.086,8.589H50.419
			l0.085-8.589c1.474-9.609,8.05-17.688,17.008-21.656c3.345,3.033,7.738,4.875,12.585,4.875
			C84.944,70.941,89.366,69.1,92.711,66.066L92.711,66.066z"/>
		<path fill-rule="evenodd" clip-rule="evenodd" d="M80.097,67.313c8.362,0,15.166-6.804,15.166-15.137
			c0-8.362-6.804-15.165-15.166-15.165c-8.333,0-15.137,6.803-15.137,15.165C64.96,60.51,71.764,67.313,80.097,67.313L80.097,67.313
			z"/>
	</g>
</symbol>
</svg>
